<?xml version="1.0" encoding="UTF-8" standalone="no"?>
<!-- Created with Inkscape (http://www.inkscape.org/) -->

<svg
   xmlns:svg="http://www.w3.org/2000/svg"
   xmlns="http://www.w3.org/2000/svg"
   version="1.1"
   width="5000"
   height="5000"
   id="svg2908">
  <defs
     id="defs2912" />
  <g
     id="g5875">
    <g
       id="g5788"
       style="stroke:#000000;stroke-opacity:1">
      <g
         id="g5728"
         style="stroke:#000000;stroke-opacity:1">
        <g
           id="g5783"
           style="stroke:#000000;stroke-opacity:1">
          <path
             d="m 1037.592,4309.9303 c -166.84854,0.952 -407.10647,-143.4852 -471.06569,-365.3018 l -0.0263,-0.026"
             id="path5269-0"
             style="fill:#fe0000;fill-opacity:1;stroke:#000000;stroke-width:1px;stroke-linecap:butt;stroke-linejoin:miter;stroke-opacity:1" />
          <path
             d="m 566.56808,3944.5 c 207.87584,18.5808 379.8055,110.0255 470.81802,365.4913"
             id="path5350-1"
             style="fill:#fe0000;fill-opacity:1;stroke:#000000;stroke-width:1px;stroke-linecap:butt;stroke-linejoin:miter;stroke-opacity:1" />
          <path
             d="M 2249.1615,4986.2726 C 1608.3369,4920.3722 1004.2822,4601.5508 595.41358,4113.4214 443.3963,3931.935 363.13449,3808.5408 258.74792,3595.8333 137.89344,3349.5691 68.029521,3126.7755 26.317154,2854.6196 2.4974753,2699.2061 -2.6375763,2355.8714 16.723687,2213.191 96.216197,1627.3812 335.84412,1134.1921 734.79724,735.29133 1123.833,346.30649 1611.0087,104.57254 2172.0861,22.116411 2341.1205,-2.7249461 2683.0959,-0.38395237 2856.697,26.802915 3408.607,113.23502 3869,343.71948 4253.9112,726.28398 c 150.5926,149.67442 223.2881,237.37664 330.6662,398.92632 227.7338,342.6239 363.4785,728.0255 403.9622,1146.913 13.3431,138.0661 5.4306,456.6032 -14.5265,584.7897 -67.6309,434.3985 -219.6187,796.2589 -483.6272,1151.4463 -101.8499,137.0249 -344.3266,379.5512 -482.7312,482.8299 -382.4945,285.4204 -803.5846,449.055 -1276.5992,496.083 -109.785,10.9151 -371.3104,10.373 -481.894,-0.9996 z m 235.76,-242.6487 c 0,-22.5974 -70.4285,-207.7867 -112.6153,-296.1184 -187.5776,-392.7536 -480.7,-720.2717 -877.8906,-980.9044 -307.9493,-202.0734 -655.48481,-337.8756 -954.51463,-372.984 -108.60333,-12.7509 -204.02315,-18.2566 -204.02315,-11.7722 0,12.6601 78.72932,205.7926 122.67051,300.9255 129.05792,279.4108 278.42865,499.9481 474.98273,701.2845 357.25214,365.9445 824.92354,577.9156 1442.57814,653.8457 52.3659,6.4373 98.2711,12.2013 102.0116,12.8083 3.7404,0.6074 6.8007,-2.5812 6.8007,-7.085 z m 204.0232,-14.9353 c 809.0956,-104.5704 1388.3835,-486.0642 1761.5124,-1160.0549 86.0687,-155.4682 229.2785,-483.3335 212.2942,-486.0288 -22.4321,-3.56 -153.58,3.1377 -210.14,10.7318 -417.4838,56.0538 -893.1575,286.7959 -1251.3419,607.0073 -254.3593,227.3933 -447.5072,480.8349 -576.0485,755.8696 -39.3699,84.2385 -104.0286,259.7053 -104.0286,282.3067 0,8.4786 8.9097,10.9551 29.47,8.1921 16.2085,-2.1783 78.4356,-10.2887 138.2824,-18.0238 l 0,0 z m -45.4549,-1477.5164 c 154.3553,-32.6914 271.2645,-92.3306 377.5929,-192.6223 105.9275,-99.9134 165.3117,-194.2626 212.5105,-337.6345 23.3404,-70.8994 25.3807,-88.3091 25.5009,-217.5962 0.1188,-127.7634 -2.1378,-147.9441 -24.838,-222.1294 -80.5625,-263.281 -290.1019,-460.7537 -558.913,-526.7268 -96.7606,-23.7476 -269.0241,-21.7629 -367.2416,4.2311 -266.622,70.5635 -479.5046,283.45 -549.6851,549.6953 -27.0193,102.5037 -26.928,278.9385 0.1967,380.7932 79.0645,296.8866 317.4106,516.0728 615.962,566.4468 70.6561,11.9215 201.8475,9.7471 268.9143,-4.4572 l 4e-4,0 z M 589.77329,1899.3756 c 175.52011,-26.777 360.06865,-84.5859 566.73091,-177.5253 531.4409,-238.9977 1015.0343,-710.5104 1232.5476,-1201.75694 30.9724,-69.95014 95.8697,-247.51047 95.8697,-262.30137 0,-7.01842 -63.4045,-1.7294 -188.225,15.7012 -740.8634,103.45816 -1280.5836,430.08849 -1649.3137,998.13931 -82.84912,127.634 -199.53667,356.9609 -260.83861,512.6281 -27.8665,70.7628 -50.66637,131.248 -50.66637,134.4116 0,7.9627 149.88438,-3.4289 253.89547,-19.2966 l 0,0 z m 4073.30271,18.7575 c 2.7117,-2.7113 -16.7807,-59.786 -43.3169,-126.8326 C 4414.3869,1272.4041 4117.7542,889.29528 3718.4361,627.21876 3529.8002,503.41507 3259.4259,390.86204 3001.7802,328.88499 c -190.2153,-45.75655 -480.5879,-86.26522 -480.5879,-67.04481 0,5.14663 12.5829,47.49306 27.9619,94.10318 41.2743,125.09235 151.7695,343.76302 240.1492,475.25674 343.0765,510.4386 916.9447,910.2186 1500.0894,1045.0236 120.4204,27.8375 360.7952,54.796 373.6832,41.9094 z"
             id="path5524"
             style="fill:#fe0000;fill-opacity:1;stroke:#000000;stroke-width:9.71993256;stroke-miterlimit:4;stroke-opacity:1;stroke-dasharray:none" />
        </g>
      </g>
    </g>
  </g>
</svg>
